<?xml version="1.0" encoding="UTF-8" standalone="no"?>
<!-- Created with Inkscape (http://www.inkscape.org/) -->

<svg
   xmlns:dc="http://purl.org/dc/elements/1.1/"
   xmlns:cc="http://creativecommons.org/ns#"
   xmlns:rdf="http://www.w3.org/1999/02/22-rdf-syntax-ns#"
   xmlns:svg="http://www.w3.org/2000/svg"
   xmlns="http://www.w3.org/2000/svg"
   xmlns:sodipodi="http://sodipodi.sourceforge.net/DTD/sodipodi-0.dtd"
   xmlns:inkscape="http://www.inkscape.org/namespaces/inkscape"
   width="71.246002mm"
   height="71.246002mm"
   viewBox="0 0 71.246002 71.246002"
   version="1.1"
   id="svg8"
   inkscape:export-filename="/home/rahim/Desktop/my work need Data/icon.png"
   inkscape:export-xdpi="96"
   inkscape:export-ydpi="96"
   inkscape:version="0.92.4 (5da689c313, 2019-01-14)"
   sodipodi:docname="drawing.svg">
  <defs
     id="defs2" />
  <sodipodi:namedview
     id="base"
     pagecolor="#ffffff"
     bordercolor="#666666"
     borderopacity="1.0"
     inkscape:pageopacity="0.0"
     inkscape:pageshadow="2"
     inkscape:zoom="1.9549769"
     inkscape:cx="136.06299"
     inkscape:cy="136.06299"
     inkscape:document-units="mm"
     inkscape:current-layer="layer1"
     showgrid="false"
     showguides="false"
     inkscape:window-width="1366"
     inkscape:window-height="704"
     inkscape:window-x="0"
     inkscape:window-y="27"
     inkscape:window-maximized="1">
    <inkscape:grid
       type="xygrid"
       id="grid4550" />
  </sodipodi:namedview>
  <metadata
     id="metadata5">
    <rdf:RDF>
      <cc:Work
         rdf:about="">
        <dc:format>image/svg+xml</dc:format>
        <dc:type
           rdf:resource="http://purl.org/dc/dcmitype/StillImage" />
        <dc:title></dc:title>
      </cc:Work>
    </rdf:RDF>
  </metadata>
  <g
     inkscape:label="Layer 1"
     inkscape:groupmode="layer"
     id="layer1"
     transform="translate(0,-225.754)">
    <path
       id="path4554-6-5-3-5"
       style="color:#000000;font-style:normal;font-variant:normal;font-weight:normal;font-stretch:normal;font-size:medium;line-height:normal;font-family:sans-serif;font-variant-ligatures:normal;font-variant-position:normal;font-variant-caps:normal;font-variant-numeric:normal;font-variant-alternates:normal;font-feature-settings:normal;text-indent:0;text-align:start;text-decoration:none;text-decoration-line:none;text-decoration-style:solid;text-decoration-color:#000000;letter-spacing:normal;word-spacing:normal;text-transform:none;writing-mode:lr-tb;direction:ltr;text-orientation:mixed;dominant-baseline:auto;baseline-shift:baseline;text-anchor:start;white-space:normal;shape-padding:0;clip-rule:nonzero;display:inline;overflow:visible;visibility:visible;opacity:1;isolation:auto;mix-blend-mode:normal;color-interpolation:sRGB;color-interpolation-filters:linearRGB;solid-color:#000000;solid-opacity:1;vector-effect:none;fill:#000000;fill-opacity:1;fill-rule:nonzero;stroke:none;stroke-width:0.79374999;stroke-linecap:butt;stroke-linejoin:miter;stroke-miterlimit:4;stroke-dasharray:none;stroke-dashoffset:0;stroke-opacity:1;color-rendering:auto;image-rendering:auto;shape-rendering:auto;text-rendering:auto;enable-background:accumulate"
       d="M 60.421875,236.20703 V 237 h 9.6875 v -0.79297 z m -10.253906,10 V 247 h 20.580078 v -0.79297 z m -9.871094,10 V 257 h 29.003906 v -0.79297 z m -10.023437,10 V 267 h 35.300781 v -0.79297 z m -9.957032,10 V 277 h 38.998047 v -0.79297 z m -9.730468,9.8125 -0.0039,0.79492 38.363281,0.18555 0.0039,-0.79297 z m 57.730468,-57.83594 -65.9472654,65.86719 0.5605469,0.5625 65.9472655,-65.86914 z M 54.4375,225.80859 C 40.115258,225.49502 26.027906,230.97012 15.601562,241.37695 1.726446,255.26266 -3.3954205,275.65259 2.2695312,294.44727 l 0.060547,0.20312 0.2050781,0.0625 c 18.7993527,5.69046 39.2056307,0.58281 53.1074217,-13.29297 v -0.002 c 13.875116,-13.8857 18.998936,-34.27368 13.333984,-53.06836 l -0.0625,-0.20508 -0.203124,-0.0606 c -4.699839,-1.42261 -9.499357,-2.17086 -14.273438,-2.27539 z m -0.01953,0.79297 c 4.630891,0.10149 9.285469,0.83337 13.847656,2.19336 5.477589,18.45659 0.433103,38.43542 -13.183594,52.0625 C 41.439124,294.4748 21.441786,299.50455 2.9804688,294.00195 -2.4971204,275.54536 2.5473653,255.56459 16.164062,241.9375 26.435754,231.68611 40.309908,226.29238 54.41797,226.60156 Z"
       inkscape:connector-curvature="0" />
    <path
       style="fill:#75507b;stroke:#000000;stroke-width:1.36447859;stroke-miterlimit:4;stroke-dasharray:none;stroke-opacity:1"
       d="M 9.1717981,1102.4074 C 4.5483252,1083.1871 3.12574,1069.9665 3.5527363,1050.1873 3.9117533,1033.557 5.4939318,1021.4972 9.3058918,1006.3351 26.014772,939.87553 76.138601,886.56017 141.22168,866.01984 c 35.56622,-11.22475 72.25033,-12.38401 108.00296,-3.41304 2.99181,0.7507 5.6992,1.51016 6.01643,1.68769 0.38131,0.21339 -12.63731,13.49753 -38.41444,39.19794 -21.44516,21.38135 -76.57446,76.4059 -122.509546,122.27677 l -83.518341,83.4016 z"
       id="path4639"
       inkscape:connector-curvature="0"
       transform="scale(0.26458333)" />
    <path
       style="fill:#ffffff;stroke:#000000;stroke-width:3;stroke-miterlimit:4;stroke-dasharray:none;stroke-opacity:1"
       d="M 10.29655,1103.4533 C 4.8729725,1080.3089 3.411496,1063.8741 4.7813041,1041.4324 9.0540595,971.43156 51.954842,907.79537 115.49941,877.20049 c 36.42228,-17.53629 77.96372,-23.53646 117.59716,-16.98554 8.68782,1.43599 20.46718,4.20833 20.46718,4.81707 0,0.46728 -49.39699,49.9461 -171.305931,171.58968 l -71.016761,70.8622 z"
       id="path4663"
       inkscape:connector-curvature="0"
       transform="scale(0.26458333)" />
    <path
       style="fill:#4e9a06;stroke:#000000;stroke-width:3.77952766;stroke-linejoin:round;stroke-miterlimit:4;stroke-dasharray:none;stroke-opacity:1"
       d="m 10.213988,1094.1639 c -3.1995522,-15.9449 -3.5163193,-19.4401 -3.5163193,-38.7991 0,-19.5243 0.5239775,-25.5952 3.4791983,-40.3108 5.6635,-28.20139 19.055453,-56.96317 37.851524,-81.29337 6.372497,-8.24876 23.276348,-25.1886 32.039633,-32.10785 45.877536,-36.22367 105.324936,-50.00041 162.663896,-37.69682 3.57626,0.76738 6.72875,1.61005 7.00551,1.8726 0.54434,0.51636 -236.035265,237.23734 -237.09565,237.23734 -0.352824,0 -1.445331,-4.0059 -2.427792,-8.902 z"
       id="path4708"
       inkscape:connector-curvature="0"
       transform="scale(0.26458333)" />
    <path
       style="fill:#75507b;stroke:#000000;stroke-width:1.88976383;stroke-linejoin:round;stroke-miterlimit:4;stroke-dasharray:none;stroke-opacity:1"
       d="m 51.375453,1118.4957 c -9.678273,-0.9177 -19.558006,-2.5477 -29.146504,-4.8085 l -8.65519,-2.0409 13.72196,-13.7219 13.72196,-13.722 69.058251,0.5298 69.05825,0.5298 -7.94815,4.8006 c -24.27966,14.6646 -49.79978,23.6661 -77.820178,27.4487 -9.554421,1.2898 -32.978409,1.8389 -41.990399,0.9844 z"
       id="path4716"
       inkscape:connector-curvature="0"
       transform="scale(0.26458333)" />
    <path
       style="fill:#73d216;stroke:#000000;stroke-width:1.26963103;stroke-linejoin:round;stroke-miterlimit:4;stroke-dasharray:none;stroke-opacity:1"
       d="m 98.4047,1026.8113 17.1222,-17.132 h 64.67016 c 35.56858,0 64.67015,0.1504 64.67015,0.3343 0,1.7253 -13.13286,22.9458 -18.60758,30.0667 l -2.97003,3.8631 H 152.28605 81.282498 Z"
       id="path4720"
       inkscape:connector-curvature="0"
       transform="scale(0.26458333)" />
    <path
       style="fill:#3465a4;stroke:#000000;stroke-width:1.26963103;stroke-linejoin:round;stroke-miterlimit:4;stroke-dasharray:none;stroke-opacity:1"
       d="m 96.062484,1081.063 -51.722925,-0.1764 16.781874,-16.792 16.781874,-16.7919 H 148.9561 c 46.68206,0 71.0528,0.2292 71.0528,0.6684 0,1.304 -21.9417,22.7802 -28.75596,28.146 l -6.92096,5.4497 -18.27328,-0.1637 c -10.05031,-0.09 -41.54861,-0.2431 -69.996216,-0.3401 z"
       id="path4722"
       inkscape:connector-curvature="0"
       transform="scale(0.26458333)" />
    <path
       style="fill:#edd400;stroke:#000000;stroke-width:1.26963103;stroke-linejoin:round;stroke-miterlimit:4;stroke-dasharray:none;stroke-opacity:1"
       d="m 136.69994,988.51611 17.12221,-17.13209 h 52.8464 52.8464 l -1.96513,6.54535 c -2.48129,8.26451 -5.53518,16.59364 -8.37722,22.84793 l -2.2134,4.8709 h -63.69073 -63.69073 z"
       id="path4724"
       inkscape:connector-curvature="0"
       transform="scale(0.26458333)" />
    <path
       style="fill:#f57900;stroke:#000000;stroke-width:1.26963103;stroke-linejoin:round;stroke-miterlimit:4;stroke-dasharray:none;stroke-opacity:1"
       d="m 174.32334,950.89271 17.1222,-17.13208 h 37.1549 37.1549 l -0.33906,2.1835 c -0.18649,1.20092 -0.52752,4.29981 -0.75784,6.88642 -0.39217,4.40405 -3.27527,21.41844 -4.06996,24.01851 -0.33816,1.1064 -3.39719,1.17573 -51.87335,1.17573 h -51.51399 z"
       id="path4726"
       inkscape:connector-curvature="0"
       transform="scale(0.26458333)" />
    <path
       style="fill:#cc0000;stroke:#000000;stroke-width:1.26963103;stroke-linejoin:round;stroke-miterlimit:4;stroke-dasharray:none;stroke-opacity:1"
       d="m 211.94674,913.26931 17.1222,-17.13208 h 17.56465 17.56466 l 0.41209,2.1835 c 0.22666,1.20092 0.60694,8.91036 0.84509,17.13208 l 0.43297,14.94858 h -35.53193 -35.53193 z"
       id="path4728"
       inkscape:connector-curvature="0"
       transform="scale(0.26458333)" />
    <path
       style="fill:#c17d11;stroke:#000000;stroke-width:1.26963103;stroke-linejoin:round;stroke-miterlimit:4;stroke-dasharray:none;stroke-opacity:1"
       d="m 245.52567,879.69039 c 6.82119,-6.82867 12.60369,-12.19504 12.85001,-11.92527 0.72867,0.79804 5.30323,21.32149 5.30323,23.79257 0,0.30165 -6.87496,0.54846 -15.27769,0.54846 h -15.2777 z"
       id="path4730"
       inkscape:connector-curvature="0"
       transform="scale(0.26458333)" />
  </g>
</svg>
